HIERARCHY
ROOT Hips
{
	OFFSET -0.001795 -0.223333 0.028219
	CHANNELS 6 Xposition Yposition Zposition Zrotation Yrotation Xrotation
	JOINT LeftUpLeg
	{
		OFFSET 0.069520 -0.091406 -0.006815
		CHANNELS 3 Zrotation Yrotation Xrotation
		JOINT LeftLeg
		{
			OFFSET 0.034277 -0.375199 -0.004496
			CHANNELS 3 Zrotation Yrotation Xrotation
			JOINT LeftFoot
			{
				OFFSET -0.013596 -0.397961 -0.043693
				CHANNELS 3 Zrotation Yrotation Xrotation
				JOINT LeftToe
				{
					OFFSET 0.026358 -0.055791 0.119288
					CHANNELS 3 Zrotation Yrotation Xrotation
					End Site
					{
						OFFSET 0.000000 0.000000 0.000000
					}
				}
			}
		}
	}
	JOINT RightUpLeg
	{
		OFFSET -0.067670 -0.090522 -0.004320
		CHANNELS 3 Zrotation Yrotation Xrotation
		JOINT RightLeg
		{
			OFFSET -0.038290 -0.382569 -0.008850
			CHANNELS 3 Zrotation Yrotation Xrotation
			JOINT RightFoot
			{
				OFFSET 0.015774 -0.398415 -0.042312
				CHANNELS 3 Zrotation Yrotation Xrotation
				JOINT RightToe
				{
					OFFSET -0.025372 -0.048144 0.123348
					CHANNELS 3 Zrotation Yrotation Xrotation
					End Site
					{
						OFFSET 0.000000 0.000000 0.000000
					}
				}
			}
		}
	}
	JOINT Spine
	{
		OFFSET -0.002533 0.108963 -0.026696
		CHANNELS 3 Zrotation Yrotation Xrotation
		JOINT Spine1
		{
			OFFSET 0.005487 0.135180 0.001092
			CHANNELS 3 Zrotation Yrotation Xrotation
			JOINT Spine2
			{
				OFFSET 0.001457 0.052922 0.025425
				CHANNELS 3 Zrotation Yrotation Xrotation
				JOINT Neck
				{
					OFFSET -0.002778 0.213870 -0.042857
					CHANNELS 3 Zrotation Yrotation Xrotation
					JOINT Head
					{
						OFFSET 0.005152 0.064970 0.051349
						CHANNELS 3 Zrotation Yrotation Xrotation
						End Site
						{
							OFFSET 0.000000 0.000000 0.000000
						}
					}
				}
				JOINT LeftShoulder
				{
					OFFSET 0.078845 0.121749 -0.034090
					CHANNELS 3 Zrotation Yrotation Xrotation
					JOINT LeftArm
					{
						OFFSET 0.090977 0.030469 -0.008868
						CHANNELS 3 Zrotation Yrotation Xrotation
						JOINT LeftForeArm
						{
							OFFSET 0.259612 -0.012772 -0.027456
							CHANNELS 3 Zrotation Yrotation Xrotation
							JOINT LeftHand
							{
								OFFSET 0.249234 0.008986 -0.001171
								CHANNELS 3 Zrotation Yrotation Xrotation
								End Site
								{
									OFFSET 0.000000 0.000000 0.000000
								}
							}
						}
					}
				}
				JOINT RightShoulder
				{
					OFFSET -0.081759 0.118833 -0.038615
					CHANNELS 3 Zrotation Yrotation Xrotation
					JOINT RightArm
					{
						OFFSET -0.096012 0.032551 -0.009143
						CHANNELS 3 Zrotation Yrotation Xrotation
						JOINT RightForeArm
						{
							OFFSET -0.253742 -0.013329 -0.021401
							CHANNELS 3 Zrotation Yrotation Xrotation
							JOINT RightHand
							{
								OFFSET -0.255298 0.007772 -0.005559
								CHANNELS 3 Zrotation Yrotation Xrotation
								End Site
								{
									OFFSET 0.000000 0.000000 0.000000
								}
							}
						}
					}
				}
			}
		}
	}
}
MOTION
Frames: 10
Frame Time: 0.050000
-0.222893 0.844486 0.429371 23.577238 -39.779732 -38.842955 -6.557036 6.829154 -60.579528 27.781608 -12.655644 81.170529 -0.218914 -7.515774 -13.768397 0.000000 0.000000 0.000000 -4.140225 2.049674 15.347392 -0.235693 8.546714 40.423876 -12.514377 -7.971578 -24.864677 0.000000 0.000000 0.000000 4.657599 1.000012 29.460270 32.277588 -13.644259 -160.435278 53.033934 -21.975864 162.111103 -19.815212 25.031504 -16.620553 0.000000 0.000000 0.000000 -30.357600 -9.144817 25.900578 -14.684923 -30.609225 23.615279 93.450875 -13.359380 -34.225076 0.000000 0.000000 0.000000 7.668284 -0.793501 13.508063 34.082776 37.977530 22.723181 -79.408950 8.321859 -33.097726 0.000000 0.000000 0.000000
-0.261988 0.852509 0.459008 26.788436 -39.271208 -46.461355 -14.723911 4.538209 -69.225868 32.724232 -19.976804 81.118394 5.273211 -9.128837 -36.152367 0.000000 0.000000 0.000000 -3.061333 5.017791 28.517742 -1.798245 5.976481 33.008992 -12.321076 -9.278152 -22.085760 0.000000 0.000000 0.000000 -1.952813 1.196996 27.820566 11.710287 5.549628 169.326161 26.527518 -41.931905 -170.206570 10.452773 22.415725 5.804600 0.000000 0.000000 0.000000 -9.626942 -5.173186 -0.862235 -49.398644 -6.391918 32.858674 101.605559 -48.447884 -85.390829 0.000000 0.000000 0.000000 32.011692 11.436805 -8.457553 39.428305 21.259145 29.074616 -70.424702 24.255158 -39.878209 0.000000 0.000000 0.000000
-0.310524 0.860646 0.491248 25.651329 -39.662001 -52.797800 -18.326147 2.759963 -70.201942 36.464073 -23.118077 79.596188 11.595685 -5.047474 -60.169459 0.000000 0.000000 0.000000 3.806513 5.847019 39.917012 -0.281562 6.038534 37.804668 -11.474316 -4.085038 -29.177427 0.000000 0.000000 0.000000 -11.853904 0.562317 19.890333 2.390866 -23.591016 162.425783 -81.164849 -89.004631 -83.084651 -16.043529 -37.419791 5.382286 0.000000 0.000000 0.000000 3.903071 10.375232 28.698047 -55.915792 -26.522559 13.908521 103.475492 -70.609757 -111.313677 0.000000 0.000000 0.000000 59.334782 8.949189 15.150149 16.808871 35.581313 13.829992 -52.718927 34.300858 -25.830756 0.000000 0.000000 0.000000
-0.365610 0.868320 0.521547 24.017531 -40.981431 -57.117228 -19.770011 2.062362 -65.951266 39.025651 -23.147079 81.729738 12.851801 3.551246 -70.266429 0.000000 0.000000 0.000000 10.100087 4.659964 42.490638 12.605565 4.909129 59.646649 -11.988627 -5.523553 -40.881614 0.000000 0.000000 0.000000 -21.978060 0.259622 4.749465 -2.374709 -34.240092 161.495761 -159.276902 -59.499315 -17.408346 -47.438868 -54.445118 43.443002 0.000000 0.000000 0.000000 9.586825 13.046137 27.178202 -51.792207 -24.441683 5.066042 93.418981 -77.782689 -121.321725 0.000000 0.000000 0.000000 45.293864 8.050848 112.487474 -60.592720 24.125013 -37.742599 -65.562750 -8.084469 0.378717 0.000000 0.000000 0.000000
-0.423178 0.869252 0.549146 13.895968 -39.937512 -58.105045 -18.238024 -2.071388 -49.520554 43.351175 -23.320525 85.131349 12.845503 6.899808 -69.966857 0.000000 0.000000 0.000000 17.536723 0.274169 38.420412 37.402372 -14.960587 85.618707 -6.796612 -20.595150 -27.002545 0.000000 0.000000 0.000000 -26.149847 -0.436165 -6.270065 4.171116 -56.161443 147.514175 -155.467893 -29.250805 -26.193030 23.739368 -32.165749 -8.969902 0.000000 0.000000 0.000000 26.166658 8.736374 21.097935 -53.227546 -21.250291 -7.500180 122.996061 -78.887123 -169.138486 0.000000 0.000000 0.000000 29.135934 13.544313 76.949423 -68.530680 57.392647 -53.331222 -69.822264 14.348463 -16.933423 0.000000 0.000000 0.000000
-0.478863 0.861038 0.573415 -1.914439 -35.478144 -55.541964 -13.458658 -4.228205 -31.017519 31.398475 -13.938484 88.182521 11.090196 11.374101 -61.960448 0.000000 0.000000 0.000000 24.299220 -2.914036 27.602450 57.941045 -41.288158 82.959660 -15.760726 -33.873418 18.529016 0.000000 0.000000 0.000000 -26.746080 -1.362801 -4.182019 30.836180 -39.453301 118.936929 -121.807462 -34.394795 -38.719989 29.501616 -16.320880 -13.904579 0.000000 0.000000 0.000000 42.165275 13.595360 35.807864 -38.517524 -39.356399 -4.190231 106.310618 -59.423625 -132.481148 0.000000 0.000000 0.000000 13.476560 27.151236 14.999790 57.796684 46.912357 23.477635 -94.494900 49.003049 -47.644763 0.000000 0.000000 0.000000
-0.527603 0.855051 0.595004 -15.935877 -31.628724 -51.641070 -6.106402 -2.490128 -17.840235 20.930786 -9.300376 79.945570 8.388573 10.817344 -40.417188 0.000000 0.000000 0.000000 25.599197 -0.353313 9.314236 69.528285 -58.410838 80.493356 -15.417420 -28.999648 27.374258 0.000000 0.000000 0.000000 -25.100678 -2.194209 -2.165971 -4.123902 2.115325 8.100145 3.837331 56.575654 -6.231418 -15.336554 -20.359200 61.214893 0.000000 0.000000 0.000000 1.946837 -16.763185 1.318814 -14.750111 0.980294 0.726255 123.564326 -70.354169 -127.448864 0.000000 0.000000 0.000000 58.776925 16.324152 53.367582 -13.684142 5.804515 0.878189 -84.442776 36.434496 -44.058611 0.000000 0.000000 0.000000
-0.567102 0.849976 0.615036 -25.100310 -31.275570 -47.971647 5.939359 0.713564 -11.091215 11.880872 -5.162608 75.269433 4.529149 4.306007 -17.100374 0.000000 0.000000 0.000000 14.679219 2.197615 -4.499523 38.058591 -50.633237 115.115943 -7.540413 -20.143901 0.629658 0.000000 0.000000 0.000000 -17.519807 -2.122351 -3.541803 -1.479055 0.423834 2.223607 11.918798 46.029092 17.363358 5.422134 -24.340564 30.284190 0.000000 0.000000 0.000000 8.555892 -13.518668 5.848628 -14.185630 -16.645090 0.254833 86.366539 -59.724844 -74.385106 0.000000 0.000000 0.000000 33.769748 13.976313 25.829903 -1.045640 9.184244 -1.224298 -33.762484 31.311386 -9.040925 0.000000 0.000000 0.000000
-0.600135 0.844321 0.634647 -26.116859 -32.853107 -46.450061 12.195847 2.244075 -7.410658 5.234606 0.763578 75.312631 1.797661 2.202681 -4.161128 0.000000 0.000000 0.000000 7.873076 2.258274 -9.276395 26.389726 -23.343422 115.959317 -5.495796 -17.876233 -27.096552 0.000000 0.000000 0.000000 -12.444809 -1.615667 -4.658006 -3.582880 1.633072 1.156833 11.910695 37.280467 18.716292 0.092421 -18.770717 39.096530 0.000000 0.000000 0.000000 5.120501 -15.074557 5.071100 -5.740781 -15.473807 -0.861354 68.435079 -57.798385 -49.798202 0.000000 0.000000 0.000000 24.395943 12.696009 16.162901 1.732650 3.330581 -0.693063 -15.601789 24.466920 -2.380014 0.000000 0.000000 0.000000
-0.630634 0.821780 0.655624 -25.196572 -34.233981 -46.301147 15.649078 3.093184 -4.829546 3.998352 2.192368 76.427113 1.354740 1.856562 -2.528433 0.000000 0.000000 0.000000 3.265164 1.774447 -10.338299 22.607747 -5.917524 96.280561 -6.685665 -16.799818 -7.840010 0.000000 0.000000 0.000000 -8.533989 -1.122610 -6.256291 1.696181 -1.824391 -3.067832 7.981506 33.247901 23.734587 2.403969 -20.784610 39.831684 0.000000 0.000000 0.000000 3.951627 -15.647107 4.955389 -6.409207 -14.224195 -1.201977 65.678892 -56.966288 -44.014033 0.000000 0.000000 0.000000 13.425776 9.966583 8.542008 8.040029 4.589515 -1.731825 -8.674185 20.345567 -0.576283 0.000000 0.000000 0.000000
